<svg width="512" height="512" viewBox="0 0 512 512" fill="none" xmlns="http://www.w3.org/2000/svg">
<path d="M503.883 473.464H174.825V376.365H406.784V225.321H174.825V306.238L12.9931 176.772L174.825 47.3066V128.223H503.883V473.464Z" fill="#00B4D7"/>
<path d="M174.825 424.915H455.334V176.772H12.9931L174.825 47.3066V128.223H503.883V473.464H174.825V424.915Z" fill="#0093C4"/>
<path d="M166.709 481.582H512V120.106H182.942V30.4199L0 176.773L182.942 323.126V233.439H398.667V368.249H166.708V481.582H166.709ZM495.766 465.348H182.942V384.482H414.901V217.206H166.709V289.351L25.987 176.774L166.709 64.1959V136.341H495.766V465.348Z" fill="black"/>
<path d="M458.005 290.054H474.239V157.867H363.629V174.1H458.005V290.054Z" fill="white"/>
<path d="M458.005 311.631H474.239V343.997H458.005V311.631Z" fill="white"/>
</svg>
