<?xml version="1.0" encoding="utf-8"?>
<!-- Uploaded to: SVG Repo, www.svgrepo.com, Generator: SVG Repo Mixer Tools -->
<svg version="1.1" id="Uploaded to svgrepo.com" xmlns="http://www.w3.org/2000/svg" xmlns:xlink="http://www.w3.org/1999/xlink" 
	 width="800px" height="800px" viewBox="0 0 32 32" xml:space="preserve">
<style type="text/css">
	.pictogram_een{fill:#F4D6B0;}
	.pictogram_twee{fill:#F8AD89;}
	.pictogram_zes{fill:#0C6667;}
	.pictogram_drie{fill:#F27261;}
	.st0{fill:#E54D2E;}
	.st1{fill:#01A59C;}
	.st2{fill:#F8AD89;}
	.st3{fill:none;}
	.st4{fill:#008A74;}
</style>
<g>
	<path class="pictogram_twee" d="M11,27H4v-4h7h5v-5H4v-4h12V9H8H4V5h4h8V0H3C1.35,0,0,1.35,0,3v26c0,1.65,1.35,3,3,3h13v-5H11z"/>
	<path class="pictogram_een" d="M29,0H16v5h12v4H16v5h10v4H16v5h9h3v4h-3h-9v5h13c1.65,0,3-1.35,3-3V3C32,1.35,30.65,0,29,0z"/>
	<path class="pictogram_zes" d="M28,5v4H8V5H28z M28,27v-4h-3v4H28z M4,18h12v-4H4V18z M4,23v4h7v-4H4z"/>
	<path class="pictogram_drie" d="M16,18v-4h12v4H16z M4,5v4h4V5H4z M11,23v4h14v-4H11z"/>
</g>
</svg>