<?xml version="1.0" encoding="iso-8859-1"?>
<!-- Uploaded to: SVG Repo, www.svgrepo.com, Generator: SVG Repo Mixer Tools -->
<svg version="1.1" id="Layer_1" xmlns="http://www.w3.org/2000/svg" xmlns:xlink="http://www.w3.org/1999/xlink" 
	 viewBox="0 0 512 512" xml:space="preserve">
<polygon style="fill:#00B4D7;" points="8.117,473.464 337.175,473.464 337.175,376.365 105.216,376.365 105.216,225.321 
	337.175,225.321 337.175,306.238 499.007,176.772 337.175,47.307 337.175,128.223 8.117,128.223 "/>
<polygon style="fill:#0093C4;" points="337.175,424.915 56.666,424.915 56.666,176.772 499.007,176.772 337.175,47.307 
	337.175,128.223 8.117,128.223 8.117,473.464 337.175,473.464 "/>
<path d="M345.291,481.581H0V120.105h329.058V30.419L512,176.772L329.058,323.125v-89.687H113.333v134.81h231.959V481.581z
	 M16.234,465.347h312.824v-80.866H97.099V217.205h248.192v72.145l140.722-112.577L345.291,64.195v72.145H16.234V465.347z"/>
<g>
	<polygon style="fill:#FFFFFF;" points="53.995,290.054 37.761,290.054 37.761,157.867 148.371,157.867 148.371,174.1 53.995,174.1 
			"/>
	<rect x="37.761" y="311.63" style="fill:#FFFFFF;" width="16.234" height="32.366"/>
</g>
</svg>